<svg width="28" height="29" viewBox="0 0 28 29" fill="none" xmlns="http://www.w3.org/2000/svg">
<g clip-path="url(#clip0)">
<path d="M28 12.8761C28 14.5479 27.7429 16.0697 27.2288 17.4593C26.7146 18.8423 25.9917 19.9185 25.0589 20.6824C24.1262 21.4464 23.0506 21.8313 21.8368 21.8313C20.8324 21.8313 19.9834 21.5246 19.2963 20.911C18.6087 20.3034 18.1967 19.5215 18.0706 18.5716H17.9331C17.4608 19.5882 16.7971 20.3877 15.9247 20.9657C15.0583 21.5426 14.024 21.8313 12.8341 21.8313C11.0828 21.8313 9.71367 21.2238 8.72715 20.0213C7.74116 18.8182 7.24491 17.1826 7.24491 15.1133C7.24491 12.7197 7.93847 10.7713 9.31309 9.27348C10.6942 7.77621 12.4993 7.0303 14.7414 7.0303C15.5366 7.0303 16.4384 7.10249 17.4369 7.24686C18.4413 7.39724 19.3501 7.59575 20.1573 7.85441L19.7148 16.1359V16.5269C19.7148 18.6137 20.4916 19.6603 22.0455 19.6603C23.1098 19.6603 23.9708 19.0287 24.6404 17.7661C25.3035 16.5028 25.6389 14.8606 25.6389 12.84C25.6389 10.7166 25.2024 8.85292 24.3415 7.25887C23.4745 5.65933 22.2488 4.42619 20.653 3.56655C19.0571 2.70034 17.2276 2.27325 15.1654 2.27325C12.5591 2.27325 10.2936 2.81464 8.36839 3.90287C6.4437 4.98563 4.97342 6.53705 3.95755 8.55163C2.94112 10.5668 2.43291 12.8942 2.43291 15.5404C2.43291 19.1184 3.37161 21.8734 5.24846 23.8038C7.13128 25.7287 9.83922 26.6907 13.3782 26.6907C15.829 26.6907 18.3755 26.1854 21.0117 25.1753V27.5202C18.7701 28.5067 16.2237 29 13.3782 29C9.14022 29 5.84634 27.8276 3.50856 25.4816C1.16535 23.1421 0 19.8649 0 15.6607C0 12.606 0.621811 9.88758 1.87087 7.50551C3.11993 5.11796 4.90166 3.27126 7.21497 1.96101C9.52231 0.655673 12.1764 0 15.1654 0C17.676 0 19.9061 0.529351 21.8607 1.59352C23.8153 2.65824 25.328 4.16809 26.3977 6.12252C27.4679 8.07642 28 10.3262 28 12.8761H28ZM9.89305 15.1855C9.89305 18.1691 11.0285 19.6604 13.3065 19.6604C15.7214 19.6604 17.0363 17.8257 17.2461 14.1454L17.4912 9.55022C16.6542 9.30961 15.7334 9.19532 14.7414 9.19532C13.2228 9.19532 12.0395 9.72522 11.1785 10.7834C10.3235 11.8355 9.89302 13.3093 9.89302 15.1855L9.89305 15.1855Z" fill="#0093DD"/>
</g>
<defs>
<clipPath id="clip0">
<rect width="28" height="29" fill="white"/>
</clipPath>
</defs>
</svg>
