<svg width="18" height="25" viewBox="0 0 18 25" fill="none" xmlns="http://www.w3.org/2000/svg">
<path fill-rule="evenodd" clip-rule="evenodd" d="M1.88728 18.3825L1.95982 19.9867C1.95982 21.5253 2.81255 22.8528 3.76086 23.5421C4.54011 24.1081 6.51143 25.0001 7.83894 25.0001C7.66677 24.8621 6.76673 24.5416 6.40123 24.3185C6.02795 24.0909 5.60205 23.7035 5.32746 23.3689C4.72629 22.6369 4.28233 21.703 4.28233 20.4543V19.6524C4.28233 19.1059 5.07311 17.5412 5.44358 17.3127C5.44358 18.5138 5.34738 18.953 5.80535 19.7871C6.05379 20.2402 6.8209 20.998 7.40339 21.123C7.26267 20.5662 6.45976 19.8416 6.45976 18.8501V18.0482C6.45976 17.0521 7.34081 15.7042 7.98402 15.3074C7.98402 16.0299 7.93981 16.3958 8.25767 16.8603C8.46502 17.1639 8.83456 17.6866 9.21781 17.7806C9.21781 16.7585 10.1726 15.422 10.0889 14.8394L9.85696 12.8272C10.2997 13.0012 11.1343 14.4532 11.3096 14.9854C11.4908 15.5367 11.9208 17.3852 11.5406 18.115L11.111 19.7955L11.7582 19.4517C12.3314 18.6632 13.0646 17.8761 13.0646 16.5107C13.3183 16.6819 13.5001 17.7236 13.5001 18.1818V18.3154C13.5001 18.9017 13.3058 19.3089 13.1477 19.7287C12.9677 20.2058 12.5948 20.5068 12.4839 20.7887C13.5568 20.7887 13.7003 20.2889 14.2987 19.9199C14.2987 21.2781 13.9357 22.3462 13.327 23.1693C13.0266 23.5759 12.624 23.9203 12.2062 24.2093C11.8264 24.4725 11.0198 24.769 10.8146 24.9333C12.681 24.7902 14.7554 23.5372 15.8052 22.5775C16.7765 21.6896 18 19.4442 18 17.7138V15.5081H17.855C17.7902 16.2254 17.199 17.2685 16.6937 17.5802C16.9232 16.6736 17.492 15.828 17.492 14.5722V13.4356C17.492 12.2537 16.558 10.4133 15.8226 9.95995C15.8316 10.3255 15.968 10.4313 15.968 10.8287V12.0989C15.968 12.1276 15.5402 13.1667 15.4858 13.2593C15.3046 13.5684 15.0222 13.9265 14.7339 14.1043L14.8242 12.3002L14.8068 11.3637C14.8068 8.7494 13.6576 6.10408 11.8308 5.2138C11.8485 5.40877 12.2386 6.30507 12.3258 6.56284C12.446 6.91866 12.5565 7.70515 12.5565 8.15501V8.82336C12.5565 9.41057 12.1293 10.2449 11.8308 10.5615C11.8308 8.06785 11.6209 7.16695 10.568 5.57478C9.84108 4.47577 8.27448 3.28587 8.27448 1.60422V1.40351C8.27448 0.78075 8.67298 0.377329 8.78257 0C7.95101 0.405141 7.11291 1.40151 7.11291 2.54009V3.00803C7.11291 3.89142 7.54846 4.70227 7.54846 5.68172V6.28327C7.54846 6.78905 7.47716 7.24551 7.04037 7.35304C6.96721 6.54103 5.40808 5.21665 4.50024 5.14698C5.03168 5.87784 5.58895 6.58776 5.58895 7.82067V8.42222C5.58895 9.04154 5.43329 9.47163 5.22595 9.89311C5.09052 10.1684 4.62042 10.9316 4.57278 11.0962H4.4277C4.16619 10.0631 3.45449 9.09087 2.10489 9.09087C2.37885 9.46762 3.33899 9.99691 3.33899 10.8287V11.8314C3.33899 12.1981 2.92866 13.1299 2.80101 13.542C2.58993 14.2238 2.54043 14.6553 2.54043 15.508C2.35115 15.3802 2.00682 14.6329 1.53796 14.2923C1.17588 14.0294 0.563504 13.6796 0 13.6363C0.652231 14.1584 1.22289 14.6771 1.43584 15.5895C1.65284 16.5184 1.88727 17.2267 1.88727 18.3824L1.88728 18.3825Z" fill="#FFCD1E"/>
</svg>
