<svg width="8" height="13" viewBox="0 0 8 13" fill="none" xmlns="http://www.w3.org/2000/svg">
<path fill-rule="evenodd" clip-rule="evenodd" d="M8.00014 6.5L7.99977 6.50447V6.50929L7.99939 6.5141H7.99902V6.51926H7.99865L7.99827 6.52373L7.9979 6.52407L7.99753 6.52854L7.99715 6.52889L7.99678 6.53336H7.99641L7.99603 6.53851H7.99566L7.99491 6.54333H7.99454L7.99379 6.54814H7.99342C7.98446 6.58321 7.96579 6.61588 7.93592 6.64338L7.68541 6.8741L7.44722 7.0938L7.22172 7.30114L7.21388 7.3087L7.21015 7.31179L7.20641 7.31523L1.09815 12.9407C1.01265 13.0198 0.872275 13.0198 0.78678 12.9407L0.0647351 12.2761C-0.0207604 12.197 -0.0207604 12.068 0.0647351 11.989L6.02516 6.50001L0.064355 1.01106C-0.0215138 0.931982 -0.0215138 0.802701 0.0647283 0.724308L0.7864 0.0589914C0.871522 -0.0197458 1.01227 -0.0197468 1.09777 0.0593348L7.20641 5.68479L7.21015 5.68823L7.21425 5.69167L7.93592 6.3563C7.97886 6.39584 8.00014 6.4481 8.00014 6.50002L8.00014 6.5Z" fill="#4D4948"/>
</svg>
