<svg width="8" height="13" viewBox="0 0 8 13" fill="none" xmlns="http://www.w3.org/2000/svg">
<path fill-rule="evenodd" clip-rule="evenodd" d="M-0.00014019 6.5L0.00023365 6.49553V6.49071L0.000607491 6.4859H0.000980377V6.48074H0.00135374L0.00172758 6.47627L0.00210047 6.47593L0.00247383 6.47146L0.00284767 6.47111L0.00322056 6.46664H0.00359392L0.00396681 6.46149H0.00434065L0.0050869 6.45667H0.00546074L0.00620699 6.45186H0.00658083C0.0155411 6.41679 0.0342078 6.38412 0.0640755 6.35662L0.314589 6.1259L0.552782 5.9062L0.778281 5.69886L0.78612 5.6913L0.789855 5.68821L0.793588 5.68477L6.90185 0.0593112C6.98735 -0.0197704 7.12773 -0.0197704 7.21322 0.0593112L7.93526 0.72394C8.02076 0.803022 8.02076 0.93196 7.93526 1.01104L1.97484 6.49999L7.93565 11.9889C8.02151 12.068 8.02151 12.1973 7.93527 12.2757L7.2136 12.941C7.12848 13.0197 6.98773 13.0197 6.90223 12.9407L0.793588 7.31521L0.789855 7.31177L0.785748 7.30833L0.0640764 6.6437C0.021142 6.60416 -0.000138283 6.5519 -0.000138283 6.49998L-0.00014019 6.5Z" fill="#4D4948"/>
</svg>
