<svg width="12" height="10" viewBox="0 0 12 10" fill="none" xmlns="http://www.w3.org/2000/svg">
<path fill-rule="evenodd" clip-rule="evenodd" d="M2.45976 2.54977C2.40903 2.49147 2.19494 2.3858 2.09348 2.39734L1.86657 2.41981C1.85876 2.42892 1.6536 2.62021 1.60955 2.66879C1.52592 2.75928 1.45122 2.84915 1.3648 2.93478C1.1942 3.10421 1.04869 3.27911 0.885337 3.45764C0.721427 3.63618 0.569782 3.80075 0.405872 3.9799C0.289908 4.10621 0 4.36795 0 4.58353V4.69709C0 5.10275 0.975097 5.85516 1.1864 6.19888C1.30236 6.28329 1.52704 6.57114 1.63799 6.69502C1.76621 6.83895 1.94964 7.04299 2.08623 7.17538C2.39788 7.4778 2.66939 7.83427 2.97603 8.14459C3.05965 8.229 3.12042 8.3043 3.20517 8.38932C3.2821 8.46645 3.34901 8.56361 3.42148 8.62859C3.48225 8.68264 3.5971 8.80713 3.65062 8.87332C3.72198 8.96198 3.80505 9.02878 3.86917 9.11016C4.00799 9.28505 4.61568 9.99981 4.83144 9.99981H4.95354C5.22003 9.99981 5.73239 9.33181 5.90857 9.13991C6.20071 8.8217 6.48002 8.51746 6.77216 8.19924C7.06374 7.88103 7.34417 7.57739 7.6352 7.25857C7.91842 6.94826 8.23676 6.6434 8.49935 6.3179C8.76194 5.9924 9.10593 5.70212 9.3635 5.37845C9.49284 5.2157 9.65508 5.0572 9.79837 4.90174C9.94499 4.74203 10.0788 4.59506 10.2249 4.43596C10.4239 4.21916 11.9063 2.64146 11.9303 2.53094L11.9732 2.38094L12 2.35969C12 1.90909 11.8049 1.84715 11.603 1.61395C11.4313 1.41598 11.2317 1.22955 11.0712 1.03401C10.8995 0.825711 10.7177 0.654459 10.5426 0.451024C10.4111 0.298598 10.1641 -0.0341901 9.8898 0.00285656L9.69801 0.0247184C9.67961 0.0514385 9.1628 0.576124 9.08307 0.663573C8.88125 0.883407 8.69169 1.08988 8.48987 1.30971C8.08735 1.74816 7.69764 2.17265 7.29512 2.61171C6.89259 3.05016 6.50288 3.47465 6.10036 3.9131C5.89575 4.13658 5.70341 4.34608 5.4988 4.56895C5.36276 4.71713 5.03104 5.11611 4.90114 5.21024L2.45977 2.54977L2.45976 2.54977Z" fill="white"/>
</svg>
