<svg width="31" height="31" viewBox="0 0 31 31" fill="none" xmlns="http://www.w3.org/2000/svg">
<path fill-rule="evenodd" clip-rule="evenodd" d="M13.8771 4.68418C13.3612 5.1317 13.1517 5.1635 12.6896 5.77276C12.476 6.05445 12.0821 6.97719 12.0821 7.4397V8.19752C12.0821 8.49647 12.1919 8.41015 12.2201 8.74863C12.9332 10.0934 12.69 9.94397 13.9463 10.8154C14.4253 11.0684 14.8046 11.1598 15.5346 11.1598H15.6725C16.2431 11.1598 16.7444 11.0148 17.1223 10.8154C17.5121 10.545 17.8668 10.3888 18.1583 9.9894C18.2985 9.79722 18.4183 9.6382 18.5599 9.42558C18.7452 9.14798 18.6846 8.98397 18.8486 8.74862L18.9865 7.85314V7.64642C18.9865 6.03354 18.028 5.40974 17.1916 4.68418C16.7717 4.5865 16.4862 4.3398 15.8797 4.3398H15.1889C14.5824 4.3398 14.2969 4.5865 13.8771 4.68418H13.8771Z" fill="#0093DD"/>
<path fill-rule="evenodd" clip-rule="evenodd" d="M25.9596 14.122C25.002 14.7858 24.0955 15.5345 24.0955 17.1533V17.7044C24.0955 17.9538 24.1537 18.0888 24.2334 18.2555C24.5212 18.7975 24.4379 18.9465 24.9069 19.4436C25.1555 19.708 25.9136 20.2591 25.9596 20.3218C26.4018 20.3586 26.7123 20.6666 27.3407 20.6666H27.6858C28.6006 20.6666 28.7313 20.3263 29.3429 20.1841C29.6561 19.9124 29.9917 19.6962 30.2408 19.3582C30.5718 18.9088 30.6196 18.5676 30.8619 18.1864C30.8701 17.8094 30.9999 17.7008 30.9999 17.291V16.5331C30.7918 16.4491 30.8159 16.1379 30.7048 15.863C30.5955 15.594 30.4931 15.42 30.3287 15.2047C29.9061 14.6513 29.8169 14.6363 29.2736 14.2597C28.7942 13.9394 28.2742 13.7776 27.4787 13.7776C27.0862 13.7776 26.2237 13.9957 25.9596 14.122V14.122Z" fill="#0093DD"/>
<path fill-rule="evenodd" clip-rule="evenodd" d="M13.8771 4.68418C14.2969 4.5865 14.5824 4.3398 15.1889 4.3398H15.8797C16.4862 4.3398 16.7717 4.5865 17.1915 4.68418C17.4133 4.33525 17.2835 2.23942 17.263 1.6506C17.2348 0.842804 16.4762 1.90735e-05 15.7413 1.90735e-05H15.3274C14.6075 1.90735e-05 13.8589 0.825993 13.8074 1.58336C13.7687 2.15309 13.6663 4.35206 13.8771 4.68418V4.68418Z" fill="#C2C1C1"/>
<path fill-rule="evenodd" clip-rule="evenodd" d="M25.9597 14.122C26.2238 13.9957 27.0862 13.7776 27.4787 13.7776C28.2742 13.7776 28.7942 13.9394 29.2737 14.2597C29.4918 13.9166 29.3429 7.35882 29.3429 6.3375C29.3429 5.00585 29.3429 3.67375 29.3429 2.34211C29.3429 1.37121 29.4367 1.30033 28.9868 0.699707C28.6967 0.312618 28.2783 3.8147e-05 27.6167 3.8147e-05C26.502 3.8147e-05 26.3084 0.686078 25.89 1.30851L25.9597 14.122V14.122Z" fill="#C2C1C1"/>
<path fill-rule="evenodd" clip-rule="evenodd" d="M1.79498 19.3577C2.09869 19.1969 2.71933 18.9443 3.17558 18.9443H3.72792C4.18463 18.9443 4.80481 19.1969 5.10898 19.3577C5.29203 19.0697 5.17774 10.0862 5.17774 8.88628C5.17774 7.11848 5.17774 5.35022 5.17774 3.58196C5.17774 2.88638 5.31753 1.57792 5.06527 1.07633C4.78022 0.509328 4.27342 2.28882e-05 3.45198 2.28882e-05C2.62097 2.28882e-05 2.16107 0.479797 1.87466 1.04408C1.5928 1.59972 1.72576 2.73055 1.72576 3.51337C1.72576 5.28117 1.72576 7.04943 1.72576 8.81769C1.72576 10.0235 1.61147 19.0692 1.79498 19.3577L1.79498 19.3577Z" fill="#C2C1C1"/>
<path fill-rule="evenodd" clip-rule="evenodd" d="M1.72577 27.0732C1.72577 27.6848 1.62195 29.438 1.79134 29.8319C2.03996 30.4108 2.63282 31 3.45199 31C4.30075 31 4.85445 30.4212 5.11354 29.8333C5.27974 29.4548 5.17774 27.6729 5.17774 27.0732L5.10899 25.4199C4.68142 25.6453 4.10814 25.8334 3.45199 25.8334H3.17559C2.7075 25.8334 2.1069 25.5849 1.79498 25.4199L1.72577 27.0732L1.72577 27.0732Z" fill="#C2C1C1"/>
<path fill-rule="evenodd" clip-rule="evenodd" d="M13.8084 12.3996C13.8084 15.7526 13.8084 19.1051 13.8084 22.4576C13.8084 24.1336 13.8084 25.8101 13.8084 27.4866C13.8084 28.2035 13.7096 29.2985 13.9049 29.87C14.0688 30.3484 14.7769 30.9999 15.3274 30.9999H15.5346C16.2581 30.9999 16.8109 30.5529 17.0787 30.0604C17.3765 29.5125 17.2603 28.4834 17.2603 27.6929C17.2603 25.9937 17.2603 24.2945 17.2603 22.5953C17.2603 19.1969 17.2603 15.7985 17.2603 12.3996V10.8154H17.1224C16.7444 11.0148 16.2431 11.1598 15.6726 11.1598H15.5346C14.8047 11.1598 14.4254 11.0684 13.9463 10.8154H13.8084V12.3996L13.8084 12.3996Z" fill="#C2C1C1"/>
<path fill-rule="evenodd" clip-rule="evenodd" d="M25.9596 20.3217L25.8909 21.9751C25.8909 23.7665 25.8909 25.5575 25.8909 27.3484C25.8909 28.0572 25.7461 29.412 26.0034 29.9231C26.2843 30.4824 26.8102 30.9999 27.6166 30.9999C28.4231 30.9999 28.949 30.4824 29.2304 29.9231C29.4918 29.4025 29.3429 28.0013 29.3429 27.2798C29.3429 25.4657 29.3429 23.6515 29.3429 21.8374V20.1841C28.7313 20.3263 28.6006 20.6666 27.6859 20.6666H27.3407C26.7123 20.6666 26.4018 20.3585 25.9596 20.3217L25.9596 20.3217Z" fill="#C2C1C1"/>
<path fill-rule="evenodd" clip-rule="evenodd" d="M1.79497 19.3577C0.968064 19.9306 0 20.7966 0 22.1818V22.6643C0 22.991 0.0769534 23.1618 0.13797 23.4222C0.295519 23.603 0.467639 24.2122 0.776819 24.5757C1.15658 25.0214 1.42341 25.0977 1.79497 25.4199C2.10688 25.5848 2.70748 25.8333 3.17558 25.8333H3.45197C4.10812 25.8333 4.68141 25.6452 5.10897 25.4199C5.47143 25.1055 5.70639 25.0364 6.09389 24.6116C6.44359 24.2277 6.56927 23.648 6.76598 23.4222C6.82654 23.1618 6.90395 22.991 6.90395 22.6643V22.1818C6.90395 20.763 5.95956 19.9475 5.10898 19.3577C4.8048 19.1969 4.18462 18.9443 3.72791 18.9443H3.17558C2.71932 18.9443 2.09869 19.1969 1.79497 19.3577H1.79497Z" fill="#0093DD"/>
</svg>
