<svg width="33" height="33" viewBox="0 0 33 33" fill="none" xmlns="http://www.w3.org/2000/svg">
<g clip-path="url(#clip0)">
<path fill-rule="evenodd" clip-rule="evenodd" d="M16.4992 0C25.6109 0 33.0001 7.38903 33.0001 16.4995C33.0001 25.6111 25.6109 33.0001 16.4992 33.0001C7.38916 33.0001 0 25.6111 0 16.4995C0 7.389 7.38918 0 16.4992 0Z" fill="#DEDEDD"/>
<path fill-rule="evenodd" clip-rule="evenodd" d="M16.4992 2.47516C24.2443 2.47516 30.5249 8.75626 30.5249 16.4996C30.5249 24.244 24.2443 30.5251 16.4992 30.5251C8.75583 30.5251 2.47522 24.244 2.47522 16.4996C2.47522 8.75626 8.75583 2.47516 16.4992 2.47516Z" fill="#64B3F5"/>
<path fill-rule="evenodd" clip-rule="evenodd" d="M5.53454 15.8919L23.5468 8.70831L24.0967 8.74237L24.1658 9.39272L21.1407 23.8967L20.6594 24.4784L20.0752 24.4097L15.7438 20.9206L13.2343 23.315L12.2031 23.2809C12.2031 23.2809 11.9627 22.9387 11.9627 22.7679C11.9627 22.597 11.4813 21.0914 11.4813 21.0914L10.9315 19.6205L10.2783 17.7391L5.98159 16.4049L5.53452 15.8919L5.53454 15.8919ZM11.2752 17.2948L20.556 11.6162L21.0374 11.5476L20.6594 12.266L13.1315 18.9366L12.822 22.1862L12.444 21.7759L11.3438 17.9105L11.2752 17.2948L11.2752 17.2948Z" fill="white"/>
</g>
<defs>
<clipPath id="clip0">
<rect width="33" height="33" fill="white"/>
</clipPath>
</defs>
</svg>
