<svg width="33" height="33" viewBox="0 0 33 33" fill="none" xmlns="http://www.w3.org/2000/svg">
<path fill-rule="evenodd" clip-rule="evenodd" d="M16.7502 0.202401C25.61 0.202401 32.7964 7.34425 32.7964 16.1513C32.7964 24.9595 25.61 32.1013 16.7502 32.1013C13.9226 32.1013 11.2671 31.3718 8.95971 30.0944L0.304474 32.697L2.90452 24.2119C1.50675 21.8463 0.703453 19.0929 0.703453 16.1513C0.703453 7.34425 7.88988 0.202393 16.7502 0.202393L16.7502 0.202401Z" fill="#DEDEDD" stroke="#DEDEDD" stroke-width="0.0761997"/>
<path fill-rule="evenodd" clip-rule="evenodd" d="M16.8491 2.51862C24.4078 2.51862 30.5372 8.57863 30.5372 16.0526C30.5372 23.5265 24.4078 29.5866 16.8491 29.5866C14.0365 29.5866 11.423 28.7454 9.24869 27.3066L4.29163 28.8586L5.88327 24.1493C4.17412 21.8916 3.16199 19.0893 3.16199 16.0526C3.16199 8.57867 9.29141 2.51862 16.8491 2.51862V2.51862Z" fill="#7D519E"/>
<path fill-rule="evenodd" clip-rule="evenodd" d="M13.6935 16.4547C15.331 18.4297 16.4292 19.5285 18.8759 20.5248C20.4008 19.765 19.7129 19.5131 20.936 18.1422C30.7016 19.2862 21.8173 30.325 11.5672 18.2086C10.2629 16.6667 8.94311 14.7931 8.87634 12.7156C8.82186 11.0243 8.9853 10.7979 9.74 9.80323C12.0436 6.76709 14.4994 10.8404 14.391 13.5429C13.6726 14.1151 12.0612 14.9897 13.6935 16.4547L13.6935 16.4547Z" fill="white"/>
<path fill-rule="evenodd" clip-rule="evenodd" d="M17.0365 11.7337L17.0531 12.5116C19.0966 12.5116 19.3674 13.5833 19.7775 15.3904L20.7908 15.3075C20.4927 12.8968 19.3834 11.7491 17.0365 11.502V11.7337L17.0365 11.7337Z" fill="white"/>
<path fill-rule="evenodd" clip-rule="evenodd" d="M16.4057 9.0531L16.3886 10.2614C20.2101 10.4107 22.1975 12.3793 21.9706 16.2343L23.1168 16.2013C23.3619 11.6259 20.9071 9.2019 16.4057 9.0531L16.4057 9.0531Z" fill="white"/>
<path fill-rule="evenodd" clip-rule="evenodd" d="M15.4919 6.68695L15.4753 8.06049L18.6981 8.24221C20.6102 8.66729 20.9328 9.02914 22.2029 10.3437C23.1307 11.3038 23.0719 11.2332 23.5484 12.561C24.1845 14.3341 24.1247 15.0057 24.263 16.9622H25.625C25.5139 15.4648 25.1331 12.1885 24.412 10.9728C23.8517 10.0286 21.781 8.0164 20.7742 7.51426C19.6114 6.93456 16.7481 6.77941 15.4919 6.68695L15.4919 6.68695Z" fill="white"/>
</svg>
