<svg width="33" height="33" viewBox="0 0 33 33" fill="none" xmlns="http://www.w3.org/2000/svg">
<path fill-rule="evenodd" clip-rule="evenodd" d="M16.7502 0.202401C25.61 0.202401 32.7964 7.34425 32.7964 16.1513C32.7964 24.9595 25.61 32.1013 16.7502 32.1013C13.9226 32.1013 11.2671 31.3718 8.95971 30.0944L0.304474 32.697L2.90452 24.2119C1.50675 21.8463 0.703453 19.0929 0.703453 16.1513C0.703453 7.34425 7.88988 0.202393 16.7502 0.202393L16.7502 0.202401Z" fill="#DEDEDD" stroke="#DEDEDD" stroke-width="0.0761997"/>
<path fill-rule="evenodd" clip-rule="evenodd" d="M16.8491 2.51862C24.4078 2.51862 30.5372 8.57863 30.5372 16.0526C30.5372 23.5265 24.4078 29.5866 16.8491 29.5866C14.0365 29.5866 11.423 28.7454 9.24869 27.3066L4.29163 28.8586L5.88327 24.1493C4.17412 21.8916 3.16199 19.0893 3.16199 16.0526C3.16199 8.57867 9.29142 2.51862 16.8491 2.51862V2.51862Z" fill="#4DA735"/>
<path fill-rule="evenodd" clip-rule="evenodd" d="M13.6934 16.4546C15.331 18.4296 16.4291 19.5284 18.8759 20.5247C20.4008 19.7649 19.7128 19.513 20.936 18.1422C30.7016 19.2862 21.8172 30.3249 11.5672 18.2086C10.2629 16.6666 8.94308 14.7931 8.87631 12.7155C8.82183 11.0242 8.98527 10.7979 9.73997 9.80317C12.0436 6.76703 14.4994 10.8404 14.391 13.5428C13.6726 14.1151 12.0612 14.9897 13.6934 16.4546L13.6934 16.4546Z" fill="white"/>
</svg>
